<?xml version="1.0" encoding="UTF-8" standalone="no"?>
<svg
   xmlns:dc="http://purl.org/dc/elements/1.1/"
   xmlns:cc="http://creativecommons.org/ns#"
   xmlns:rdf="http://www.w3.org/1999/02/22-rdf-syntax-ns#"
   xmlns:svg="http://www.w3.org/2000/svg"
   xmlns="http://www.w3.org/2000/svg"
   xmlns:sodipodi="http://sodipodi.sourceforge.net/DTD/sodipodi-0.dtd"
   xmlns:inkscape="http://www.inkscape.org/namespaces/inkscape"
   version="1.1"
   width="22"
   height="14"
   viewBox="0 0 22 14"
   id="svg4"
   sodipodi:docname="google-plus.svg"
   inkscape:version="0.92.4 (5da689c313, 2019-01-14)">
  <metadata
     id="metadata10">
    <rdf:RDF>
      <cc:Work
         rdf:about="">
        <dc:format>image/svg+xml</dc:format>
        <dc:type
           rdf:resource="http://purl.org/dc/dcmitype/StillImage" />
        <dc:title></dc:title>
      </cc:Work>
    </rdf:RDF>
  </metadata>
  <defs
     id="defs8" />
  <sodipodi:namedview
     pagecolor="#ffffff"
     bordercolor="#666666"
     borderopacity="1"
     objecttolerance="10"
     gridtolerance="10"
     guidetolerance="10"
     inkscape:pageopacity="0"
     inkscape:pageshadow="2"
     inkscape:window-width="1920"
     inkscape:window-height="1013"
     id="namedview6"
     showgrid="false"
     inkscape:zoom="9.8333333"
     inkscape:cx="-0.40677966"
     inkscape:cy="12"
     inkscape:window-x="-9"
     inkscape:window-y="-9"
     inkscape:window-maximized="1"
     inkscape:current-layer="svg4" />
  <path
     d="m 21.983051,6.0169492 h -2 v -2 h -2 v 2 h -2 v 2 h 2 v 1.9999998 h 2 V 8.0169492 h 2 m -15.0000002,-2 v 2.4 h 4.0000002 c -0.2,1 -1.2000002,2.9999998 -4.0000002,2.9999998 -2.4,0 -4.3,-1.9999998 -4.3,-4.3999998 0,-2.4 1.9,-4.4 4.3,-4.4 1.4,0 2.3,0.6 2.8,1.1 l 1.9000002,-1.8 c -1.2,-1.20000005 -2.8000002,-1.90000005 -4.7000002,-1.90000005 -3.9,0 -6.99999995,3.10000005 -6.99999995,7.00000005 0,3.8999998 3.09999995,6.9999998 6.99999995,6.9999998 4.0000002,0 6.7000002,-2.8 6.7000002,-6.7999998 0,-0.5 0,-0.8 -0.1,-1.2 z"
     id="path2"
     style="fill:#ffffff"
     inkscape:connector-curvature="0" />
</svg>
