<?xml version="1.0" encoding="UTF-8" standalone="no"?>
<!-- Created with Inkscape (http://www.inkscape.org/) -->

<svg
   xmlns:dc="http://purl.org/dc/elements/1.1/"
   xmlns:cc="http://creativecommons.org/ns#"
   xmlns:rdf="http://www.w3.org/1999/02/22-rdf-syntax-ns#"
   xmlns:svg="http://www.w3.org/2000/svg"
   xmlns="http://www.w3.org/2000/svg"
   xmlns:sodipodi="http://sodipodi.sourceforge.net/DTD/sodipodi-0.dtd"
   xmlns:inkscape="http://www.inkscape.org/namespaces/inkscape"
   width="32"
   height="32"
   viewBox="0 0 8.4666665 8.4666669"
   version="1.1"
   id="svg1535"
   inkscape:version="0.92.4 (5da689c313, 2019-01-14)"
   sodipodi:docname="logo.svg">
  <defs
     id="defs1529" />
  <sodipodi:namedview
     id="base"
     pagecolor="#ffffff"
     bordercolor="#666666"
     borderopacity="1.0"
     inkscape:pageopacity="0.0"
     inkscape:pageshadow="2"
     inkscape:zoom="16"
     inkscape:cx="3.6551966"
     inkscape:cy="11.649014"
     inkscape:document-units="mm"
     inkscape:current-layer="layer1"
     showgrid="false"
     units="px"
     inkscape:window-width="1920"
     inkscape:window-height="1013"
     inkscape:window-x="-9"
     inkscape:window-y="-9"
     inkscape:window-maximized="1" />
  <metadata
     id="metadata1532">
    <rdf:RDF>
      <cc:Work
         rdf:about="">
        <dc:format>image/svg+xml</dc:format>
        <dc:type
           rdf:resource="http://purl.org/dc/dcmitype/StillImage" />
        <dc:title />
      </cc:Work>
    </rdf:RDF>
  </metadata>
  <g
     inkscape:label="Camada 1"
     inkscape:groupmode="layer"
     id="layer1"
     transform="translate(0,-288.53332)">
    <g
       transform="matrix(0.12739907,0,0,0.12739885,-9.0887344,264.53079)"
       id="g1169"
       inkscape:export-filename="C:\Users\Gilberto\Desktop\favicon.png"
       inkscape:export-xdpi="192"
       inkscape:export-ydpi="192">
      <circle
         inkscape:export-ydpi="412.76999"
         inkscape:export-xdpi="412.76999"
         r="32.874149"
         cy="221.63538"
         cx="104.69981"
         id="path1104"
         style="opacity:1;fill:#fad0e4;fill-opacity:1;stroke:#b5388a;stroke-width:0.70961541;stroke-linecap:square;stroke-linejoin:miter;stroke-miterlimit:4;stroke-dasharray:none;stroke-opacity:1" />
      <g
         inkscape:export-ydpi="905.34998"
         inkscape:export-xdpi="905.34998"
         id="g1061">
        <g
           id="g952"
           transform="translate(57.568698,49.872769)"
           style="fill:#ba348a;fill-opacity:1">
          <path
             d="m 37.885586,177.95923 q -0.783879,0 -0.958074,-1.30647 0,-2.15566 2.308089,-8.14363 -1.284691,0.18508 -2.65648,2.56938 -0.39194,0.89275 -0.609684,2.26454 l -0.566135,0.0435 q -0.783879,0 -0.783879,-1.04517 0,-1.6222 2.612931,-7.6646 0.04355,-0.26129 0.04355,-0.39194 h -0.174196 q -0.816541,0 -2.438736,1.82905 -1.241142,1.82905 -1.916149,3.7452 -1.088721,2.88511 -1.088721,3.96295 -0.185083,0.26129 -0.740331,0.26129 -0.827428,0 -0.827428,-1.00162 0,-0.94719 0.74033,-3.35326 -2.427848,2.70002 -3.309712,2.70002 -0.609684,0 -0.609684,-0.95807 0,-2.02502 1.175819,-3.8323 0.849202,-1.00162 1.698405,-1.00162 0.46815,0 0.566135,0.65323 v 0.1742 q -0.09799,0.87097 -0.304842,0.87097 -0.152421,0 -0.261293,-0.30484 l 0.04355,-0.60968 q -0.06532,-0.2613 -0.261293,-0.2613 -0.772992,0 -1.741954,2.56939 -0.130647,0.46815 -0.174196,0.91452 0.07621,0.47904 0.217744,0.47904 1.426225,0 3.701653,-4.22424 1.611307,-3.57101 1.763728,-4.44198 0.152421,-0.87098 0.675008,-0.87098 0.958074,0.34839 0.958074,1.30647 l -1.13227,3.30971 q 2.46051,-2.91777 3.614555,-2.91777 0.914526,0 0.914526,2.17744 v 0.21774 q 0,0.64235 -0.827428,2.61293 v 0.0436 q 0.141533,0 1.001623,-0.39194 0.86009,-0.39194 1.088722,-0.39194 h 0.174195 q 0.631458,0 0.74033,0.87098 v 0.39194 q 0,1.24114 -1.829051,6.31458 -0.19597,0.55525 -0.19597,1.03429 0,0.31573 0.108872,0.31573 1.241142,-0.69678 1.480661,-0.69678 0.174195,0 0.174195,0.26129 0,0.56613 -0.696781,1.39356 -1.023398,0.52259 -1.698406,0.52259 z"
             style="font-style:normal;font-variant:normal;font-weight:normal;font-stretch:normal;font-size:22.29701233px;line-height:1.25;font-family:Cellest;-inkscape-font-specification:Cellest;letter-spacing:0px;word-spacing:0px;fill:#ba348a;fill-opacity:1;stroke:none;stroke-width:0.55742526;stroke-opacity:1"
             id="path902"
             inkscape:connector-curvature="0" />
          <path
             d="m 42.861043,174.22492 q -1.306466,0 -1.785503,-1.16494 -0.283068,-0.675 -0.283068,-1.57864 0,-0.66412 0.250406,-1.98148 0.250406,-1.32824 2.602044,-3.20084 0.283068,-0.0871 0.39194,-0.0871 0.391939,0 0.609684,0.82742 h 0.04355 q 0.304841,-0.37016 0.783879,-0.37016 0.381052,0 0.870977,0.22863 0.783879,0.35928 0.783879,1.55687 0,0.52259 -0.152421,1.1976 0.272181,0.0327 0.544361,0.0327 1.502435,0 3.309713,-1.03429 0.108872,0 0.174195,0.13065 -1.40445,1.80728 -4.050043,1.80728 l -0.370165,-0.0109 q -1.927037,3.64722 -3.723427,3.64722 z m 3.266164,-4.74683 q 0.108872,-0.47904 0.108872,-0.82743 0,-0.65323 -0.381053,-0.8492 -0.163308,-0.0871 -0.293954,-0.0871 -0.337504,0 -0.479038,0.54436 0.19597,1.17582 1.045173,1.21937 z m -3.135518,3.7452 q 1.05606,0 2.830676,-2.83067 -1.350015,-0.44638 -1.52421,-1.65486 -1.91615,2.03591 -1.91615,3.57101 0.09799,0.91452 0.609684,0.91452 z"
             style="font-style:normal;font-variant:normal;font-weight:normal;font-stretch:normal;font-size:22.29701233px;line-height:1.25;font-family:Cellest;-inkscape-font-specification:Cellest;letter-spacing:0px;word-spacing:0px;fill:#ba348a;fill-opacity:1;stroke:none;stroke-width:0.55742526;stroke-opacity:1"
             id="path904"
             inkscape:connector-curvature="0" />
          <path
             d="m 51.059113,174.20314 h -0.174195 q -1.317353,0 -2.133894,-1.8726 -0.152421,-0.80565 -0.152421,-1.62219 0,-1.63309 1.143157,-2.56939 1.241143,-1.03428 2.525834,-1.03428 h 0.09798 q 0.685894,-5.18232 2.220991,-5.18232 1.219368,0 1.219368,2.39519 0,2.9831 -2.003247,7.05492 0,1.48066 0.304842,1.48066 h 0.0871 q 0.598796,0 2.166555,-1.56776 1.578646,-1.56776 1.883488,-1.56776 0.0871,0.0109 0.0871,0.0871 -2.645592,3.85407 -4.050043,3.91939 -0.631458,0 -1.350014,-0.74033 -0.903639,1.21937 -1.872601,1.21937 z m 2.700029,-4.22424 q 1.393563,-2.30809 1.393563,-5.40006 -0.04355,-0.13064 -0.04355,-0.60968 h -0.04355 q -1.175819,3.05931 -1.350015,5.96619 v 0.0436 z m -2.612931,3.35326 q 0.653233,0 1.219368,-1.04517 v -0.21774 q -0.130647,-1.75284 -0.130647,-2.35164 0,-0.81654 0.0871,-1.43711 -2.438736,0.99073 -2.438736,3.09197 0,1.28469 0.914526,1.8726 0.228632,0.0871 0.348391,0.0871 z"
             style="font-style:normal;font-variant:normal;font-weight:normal;font-stretch:normal;font-size:22.29701233px;line-height:1.25;font-family:Cellest;-inkscape-font-specification:Cellest;letter-spacing:0px;word-spacing:0px;fill:#ba348a;fill-opacity:1;stroke:none;stroke-width:0.55742526;stroke-opacity:1"
             id="path906"
             inkscape:connector-curvature="0" />
          <path
             d="m 59.638239,166.63653 q 0.391939,0 1.001623,0.78388 0.489925,-0.30485 1.262917,-0.30485 0.174195,0.15243 0.174195,0.65324 0,1.20848 -0.609684,5.05166 h 0.04355 q 0.337504,0 3.44036,-3.4839 l 0.0871,-0.0435 h 0.04355 q 0.0871,0.0109 0.152421,0.19597 -2.471397,4.344 -4.028269,4.5073 h -0.0871 q -0.381053,0 -0.958075,-0.91452 -1.415338,0.70767 -2.351638,0.95807 h -0.174196 q -1.01251,0 -1.654856,-1.35001 -0.130647,-0.46815 -0.130647,-0.69678 v -0.30485 q 0,-2.58027 2.917774,-4.83392 0.479037,-0.21774 0.870977,-0.21774 z m -2.133894,6.18393 v 0.1742 l 0.304842,0.0435 q 0.74033,0 1.698405,-1.17582 0.958075,-1.18671 0.958075,-2.00325 0.174195,-0.72944 0.174195,-1.48066 0,-0.60968 -0.391939,-0.60968 -0.457263,0 -2.090345,2.78712 -0.653233,1.27381 -0.653233,2.26454 z"
             style="font-style:normal;font-variant:normal;font-weight:normal;font-stretch:normal;font-size:22.29701233px;line-height:1.25;font-family:Cellest;-inkscape-font-specification:Cellest;letter-spacing:0px;word-spacing:0px;fill:#ba348a;fill-opacity:1;stroke:none;stroke-width:0.55742526;stroke-opacity:1"
             id="path908"
             inkscape:connector-curvature="0" />
        </g>
        <g
           id="g957"
           transform="matrix(0.62819485,0,0,0.62819485,99.429881,102.63867)"
           style="fill:#ba348a;fill-opacity:1">
          <path
             d="m 26.85684,204.7074 q -0.827429,0 -0.827429,-1.00163 0,-1.12138 1.959699,-1.30646 0.46815,-0.0436 0.783879,-0.13065 -0.01089,-0.10887 -0.892751,-0.80565 -0.870977,-0.70767 -0.979849,-2.24277 0.283067,-2.64559 2.743577,-2.64559 1.480661,0 1.959699,1.25203 0.0871,0.34839 0.0871,0.56613 0,0.48993 -1.567758,1.17582 -0.609684,0.1742 -0.870977,0.1742 l -0.0871,-0.13065 q 0,-0.0871 0.979849,-0.60968 0.653233,-0.35928 0.653233,-0.63146 0,-0.13065 -0.326617,-0.35928 -0.315729,-0.22863 -0.881864,-0.22863 -0.827428,0 -1.164932,1.7855 0,0.13065 -0.02177,0.46815 v 0.0218 q 0,0.3375 0.729443,1.04517 0.729443,0.69678 0.751218,0.92541 1.535097,-0.37016 4.093592,-2.24276 0.174195,0 0.174195,0.0871 v 0.0871 q -0.783879,1.65486 -4.246013,2.8089 -0.217744,0.48993 -1.262916,1.21937 -1.034286,0.71856 -1.785503,0.71856 z m 0.174195,-0.65324 q 0.675007,0 1.654856,-1.06694 -1.916149,0.0653 -2.057683,0.37016 -0.07621,0.1742 -0.07621,0.34839 0,0.13065 0.04355,0.2613 l 0.130646,0.0871 z"
             style="font-style:normal;font-variant:normal;font-weight:normal;font-stretch:normal;font-size:22.29701233px;line-height:1.25;font-family:Cellest;-inkscape-font-specification:Cellest;letter-spacing:0px;word-spacing:0px;fill:#ba348a;fill-opacity:1;stroke:none;stroke-width:0.55742526;stroke-opacity:1"
             id="path910"
             inkscape:connector-curvature="0" />
          <path
             d="m 35.501287,196.8686 h 0.130646 q 1.175819,0 1.175819,1.08872 0,1.50244 -1.8726,2.35164 l -0.653233,0.39194 q -0.39194,0.97985 -0.39194,1.56776 v 0.21775 q 0,0.60968 0.522587,0.74033 h 0.261293 q 1.186706,0 3.353261,-2.65648 0.718556,-0.74033 0.78388,-0.74033 h 0.04355 q 0.0871,0 0.0871,0.13064 -2.112119,3.87585 -4.398434,4.48553 h -0.217744 q -1.175819,0 -1.611308,-1.8726 -0.0871,-0.65323 -0.0871,-1.08872 v -0.13065 q 0,-3.37503 2.612931,-4.44198 z m -0.740331,2.87423 h 0.04355 q 0.772992,0 1.480661,-1.17582 0.0871,-0.30484 0.0871,-0.52259 l -0.04355,-0.17419 q -1.012511,0.9363 -1.567759,1.8726 z"
             style="font-style:normal;font-variant:normal;font-weight:normal;font-stretch:normal;font-size:22.29701233px;line-height:1.25;font-family:Cellest;-inkscape-font-specification:Cellest;letter-spacing:0px;word-spacing:0px;fill:#ba348a;fill-opacity:1;stroke:none;stroke-width:0.55742526;stroke-opacity:1"
             id="path912"
             inkscape:connector-curvature="0" />
          <path
             d="m 39.431571,204.56586 q -0.228631,0 -0.838315,-0.17419 -0.598797,-0.1742 -0.794767,-1.33913 -0.19597,-1.16493 -0.19597,-2.63471 0,-1.92703 0.958075,-3.78875 h 0.0871 q 0.642345,0 1.175819,1.43712 v 0.0435 q -0.39194,0.72944 -0.39194,1.13227 0.239519,-0.66412 1.698405,-1.43712 0.272181,-0.0871 0.435489,-0.0871 0.293954,0 1.52421,1.30646 0.653232,-0.69678 1.001623,-0.69678 h 0.217744 q 1.132271,0 1.872601,1.39356 0.04355,0.23952 0.04355,0.39194 0,0.34839 -0.370165,1.61131 -0.370166,1.26292 -0.370166,1.82905 h 0.0871 q 1.72018,-0.97985 3.875848,-3.91939 h 0.130647 q 0,0.1633 -0.348391,1.25202 -0.337504,1.08873 -1.72018,2.28632 -1.371789,1.19759 -2.329864,1.19759 -0.03266,0 -0.533473,-0.0109 -0.500812,-0.0218 -0.685894,-1.37179 0,-0.46815 0.609684,-3.52746 0,-0.28307 -0.39194,-0.34839 -0.925413,0 -1.219368,2.43873 -0.283068,2.43874 -0.566135,2.43874 -0.696782,0 -1.175819,-1.56776 -0.0871,-0.19597 -0.0871,-0.58791 0,-0.45726 0.479038,-2.8089 v -0.21774 q 0,-0.0653 -0.130647,-0.13065 -0.587909,0 -1.382676,1.25203 -0.794767,1.25203 -0.794767,2.10123 l 0.348391,2.48229 q -0.06532,0.0544 -0.217744,0.0544 z"
             style="font-style:normal;font-variant:normal;font-weight:normal;font-stretch:normal;font-size:22.29701233px;line-height:1.25;font-family:Cellest;-inkscape-font-specification:Cellest;letter-spacing:0px;word-spacing:0px;fill:#ba348a;fill-opacity:1;stroke:none;stroke-width:0.55742526;stroke-opacity:1"
             id="path914"
             inkscape:connector-curvature="0" />
        </g>
        <g
           id="g967"
           transform="matrix(0.84547182,0,0,0.84547182,53.73449,41.183338)"
           style="fill:#ba348a;fill-opacity:1">
          <path
             d="m 33.269408,220.65545 q 1.535097,0 5.617802,1.43711 6.064178,1.7855 9.580748,1.7855 2.569382,0 3.78875,-1.04517 h 0.04355 q 1.611307,1.17582 1.611307,1.8726 0,0.40283 -1.698405,0.65323 -1.731067,0.39194 -3.353262,0.39194 -2.177442,0 -8.70977,-1.48066 -0.304842,0.56614 -0.653233,2.52584 h 0.04355 q 0.587909,-0.0762 1.611307,-0.13065 0.489925,0 1.698406,0.39194 0,-0.65323 1.001623,-0.82743 h 0.304842 q 0.348391,0 0.39194,1.35002 v 0.39194 q -0.09799,0.82742 -0.783879,0.82742 h -0.04355 q -2.297202,-0.65323 -2.65648,-0.65323 -1.121383,0 -2.177443,0.87098 -0.870977,2.81979 -1.262917,5.4436 -0.381052,0.87098 -0.914526,0.87098 -0.870977,0 -1.437112,-1.35001 v -0.0871 q 0.0871,-0.65323 0.914526,-4.09359 0,-0.0653 -0.348391,-0.47904 -0.34839,-0.41371 -0.34839,-0.87098 v -0.13064 q 0.174195,-0.30485 1.480661,-0.95808 l 0.827428,-3.96294 q -3.309713,-1.21937 -5.182314,-1.21937 H 32.05004 q -2.482284,0 -3.353261,3.52746 -0.0871,0.43548 -0.0871,0.87097 v 0.43549 q 0,1.86171 1.393563,2.70003 0.435489,0.26129 1.13227,0.26129 h 0.0871 q 2.26454,0 2.26454,-2.30809 0,-0.38105 -0.435488,-3.17906 0.108872,-0.0871 0.174195,-0.0871 0.479038,0 1.045173,2.0468 0.130646,0.56613 0.130646,1.30646 0,2.63471 -2.351638,3.13552 -0.283067,0.0435 -0.566135,0.0435 h -0.304842 q -2.721803,0 -3.78875,-2.74358 -0.217744,-0.86009 -0.217744,-1.61131 0,-2.75446 2.525833,-4.87747 1.589533,-1.04517 3.571006,-1.04517 z"
             style="font-style:normal;font-variant:normal;font-weight:normal;font-stretch:normal;font-size:22.29701233px;line-height:1.25;font-family:Cellest;-inkscape-font-specification:Cellest;letter-spacing:0px;word-spacing:0px;fill:#ba348a;fill-opacity:1;stroke:none;stroke-width:0.55742526;stroke-opacity:1"
             id="path916"
             inkscape:connector-curvature="0" />
          <path
             d="m 45.833252,227.27487 q 0.696782,0 1.045173,1.26292 v 0.0871 q -0.261293,0.80565 -0.261293,1.04517 v 0.0435 h 0.04355 q 1.230255,-1.21937 1.741954,-1.21937 h 0.04355 q 0.500812,0 0.816541,0.66412 0.315729,0.66412 0.315729,0.81654 v 0.0871 q 0,0.32662 -0.435488,1.85083 -0.435489,1.51332 -0.435489,1.85082 v 0.13065 q 0.01089,0.0871 0.0871,0.0871 1.284691,-0.58791 4.333111,-3.7452 h 0.0871 q 0.0871,0.0109 0.0871,0.0871 v 0.0436 q -0.685894,1.91615 -2.558495,3.44036 -1.861713,1.51332 -2.558495,1.26292 -0.413714,0 -0.838315,-0.65323 -0.424602,-0.66412 -0.424602,-1.56776 0,-1.12139 0.696782,-2.78713 -1.154044,1.17582 -1.698405,1.17582 -0.729443,0 -0.870977,-1.48066 v -0.43549 q 0,-1.20848 0.435488,-2.00325 0.239519,-0.0436 0.348391,-0.0436 z"
             style="font-style:normal;font-variant:normal;font-weight:normal;font-stretch:normal;font-size:22.29701233px;line-height:1.25;font-family:Cellest;-inkscape-font-specification:Cellest;letter-spacing:0px;word-spacing:0px;fill:#ba348a;fill-opacity:1;stroke:none;stroke-width:0.55742526;stroke-opacity:1"
             id="path918"
             inkscape:connector-curvature="0" />
          <path
             d="m 54.793428,227.27487 h 0.130646 q 1.175819,0 1.175819,1.08873 0,1.50243 -1.8726,2.35163 l -0.653233,0.39194 q -0.39194,0.97985 -0.39194,1.56776 v 0.21775 q 0,0.60968 0.522587,0.74033 H 53.966 q 1.186706,0 3.353261,-2.65648 0.718556,-0.74033 0.78388,-0.74033 h 0.04355 q 0.0871,0 0.0871,0.13064 -2.112119,3.87585 -4.398434,4.48553 h -0.217744 q -1.175819,0 -1.611308,-1.8726 -0.0871,-0.65323 -0.0871,-1.08872 v -0.13064 q 0,-3.37504 2.612931,-4.44199 z m -0.740331,2.87423 h 0.04355 q 0.772992,0 1.480661,-1.17582 0.0871,-0.30484 0.0871,-0.52259 l -0.04355,-0.17419 q -1.012511,0.9363 -1.567759,1.8726 z"
             style="font-style:normal;font-variant:normal;font-weight:normal;font-stretch:normal;font-size:22.29701233px;line-height:1.25;font-family:Cellest;-inkscape-font-specification:Cellest;letter-spacing:0px;word-spacing:0px;fill:#ba348a;fill-opacity:1;stroke:none;stroke-width:0.55742526;stroke-opacity:1"
             id="path920"
             inkscape:connector-curvature="0" />
          <path
             d="m 56.949096,235.11367 q -0.827428,0 -0.827428,-1.00163 0,-1.12138 1.959698,-1.30646 0.468151,-0.0435 0.78388,-0.13065 -0.01089,-0.10887 -0.892752,-0.80565 -0.870977,-0.70767 -0.979849,-2.24277 0.283068,-2.64559 2.743578,-2.64559 1.480661,0 1.959698,1.25203 0.0871,0.34839 0.0871,0.56613 0,0.48993 -1.567759,1.17582 -0.609684,0.1742 -0.870977,0.1742 l -0.0871,-0.13065 q 0,-0.0871 0.97985,-0.60968 0.653232,-0.35928 0.653232,-0.63146 0,-0.13065 -0.326616,-0.35928 -0.315729,-0.22863 -0.881864,-0.22863 -0.827429,0 -1.164932,1.7855 0,0.13065 -0.02177,0.46815 v 0.0218 q 0,0.3375 0.729444,1.04517 0.729443,0.69678 0.751217,0.92541 1.535097,-0.37016 4.093593,-2.24276 0.174195,0 0.174195,0.0871 v 0.0871 q -0.783879,1.65486 -4.246013,2.8089 -0.217744,0.48993 -1.262917,1.21937 -1.034285,0.71856 -1.785503,0.71856 z m 0.174196,-0.65324 q 0.675007,0 1.654856,-1.06694 -1.916149,0.0653 -2.057683,0.37016 -0.07621,0.1742 -0.07621,0.34839 0,0.13065 0.04355,0.2613 l 0.130647,0.0871 z"
             style="font-style:normal;font-variant:normal;font-weight:normal;font-stretch:normal;font-size:22.29701233px;line-height:1.25;font-family:Cellest;-inkscape-font-specification:Cellest;letter-spacing:0px;word-spacing:0px;fill:#ba348a;fill-opacity:1;stroke:none;stroke-width:0.55742526;stroke-opacity:1"
             id="path922"
             inkscape:connector-curvature="0" />
          <path
             d="m 65.168942,234.97213 h -0.435488 q -1.687518,0 -2.30809,-1.82905 -0.04355,-0.52258 -0.04355,-0.74033 0,-2.05768 1.8726,-4.09359 0.947188,-0.74033 1.567759,-0.74033 0.05444,0 0.479037,0.0871 0.217745,-0.30485 0.479038,-0.30485 h 0.04355 q 0.751218,0 0.958075,1.00163 -0.370165,2.35164 -1.034285,2.35164 -0.685894,0 -1.05606,-1.00163 0,-0.45726 0.304842,-1.43711 v -0.0436 h -0.04355 q -2.003247,2.85245 -2.003247,4.57263 0,1.21937 1.306466,1.21937 2.035909,-0.39194 3.037532,-2.06857 1.001624,-1.67663 1.05606,-1.67663 0.130646,0 0.130646,0.65323 -0.46815,1.67663 -1.567758,2.74358 -1.382676,1.30646 -2.743578,1.30646 z"
             style="font-style:normal;font-variant:normal;font-weight:normal;font-stretch:normal;font-size:22.29701233px;line-height:1.25;font-family:Cellest;-inkscape-font-specification:Cellest;letter-spacing:0px;word-spacing:0px;fill:#ba348a;fill-opacity:1;stroke:none;stroke-width:0.55742526;stroke-opacity:1"
             id="path924"
             inkscape:connector-curvature="0" />
          <path
             d="m 69.480279,227.53617 q 0.751218,0 1.262917,1.52421 -0.914526,0.87097 -0.914526,3.26616 v 0.1742 q 0,0.26129 0.174195,1.00162 1.480661,-0.28307 1.959699,-3.08108 0.489924,-2.79801 1.045172,-2.79801 0.979849,0.32661 1.306466,1.43711 -1.262917,3.34237 -1.262917,4.44198 0,0.46815 0.304842,0.52259 1.502436,-1.04518 3.462134,-3.52746 h 0.130646 q 0.04355,0.0871 0.04355,0.13065 -0.01089,1.21936 -1.731067,2.87422 -1.709292,1.65486 -2.514946,1.61131 h -0.130646 q -0.457263,0 -0.870977,-0.78388 -1.567759,0.69678 -1.872601,0.69678 -1.611308,-1.08872 -1.611308,-3.17907 v -0.47903 q 0,-2.01414 1.219368,-3.8323 z"
             style="font-style:normal;font-variant:normal;font-weight:normal;font-stretch:normal;font-size:22.29701233px;line-height:1.25;font-family:Cellest;-inkscape-font-specification:Cellest;letter-spacing:0px;word-spacing:0px;fill:#ba348a;fill-opacity:1;stroke:none;stroke-width:0.55742526;stroke-opacity:1"
             id="path926"
             inkscape:connector-curvature="0" />
          <path
             d="m 76.752936,227.27487 q 0.696781,0 1.045172,1.26292 v 0.0871 q -0.261293,0.80565 -0.261293,1.04517 v 0.0435 h 0.04355 q 1.230255,-1.21937 1.741954,-1.21937 h 0.04355 q 0.500812,0 0.816541,0.66412 0.315729,0.66412 0.315729,0.81654 v 0.0871 q 0,0.32662 -0.435489,1.85083 -0.435488,1.51332 -0.435488,1.85082 v 0.13065 q 0.01089,0.0871 0.0871,0.0871 1.284691,-0.58791 4.33311,-3.7452 h 0.0871 q 0.0871,0.0109 0.0871,0.0871 v 0.0436 q -0.685895,1.91615 -2.558495,3.44036 -1.861714,1.51332 -2.558495,1.26292 -0.413714,0 -0.838316,-0.65323 -0.424601,-0.66412 -0.424601,-1.56776 0,-1.12139 0.696782,-2.78713 -1.154045,1.17582 -1.698406,1.17582 -0.729443,0 -0.870977,-1.48066 v -0.43549 q 0,-1.20848 0.435489,-2.00325 0.239518,-0.0436 0.348391,-0.0436 z"
             style="font-style:normal;font-variant:normal;font-weight:normal;font-stretch:normal;font-size:22.29701233px;line-height:1.25;font-family:Cellest;-inkscape-font-specification:Cellest;letter-spacing:0px;word-spacing:0px;fill:#ba348a;fill-opacity:1;stroke:none;stroke-width:0.55742526;stroke-opacity:1"
             id="path928"
             inkscape:connector-curvature="0" />
          <path
             d="m 85.288513,227.44907 q 0.39194,0 1.001623,0.78388 0.489925,-0.30484 1.262917,-0.30484 0.174196,0.15242 0.174196,0.65323 0,1.20848 -0.609684,5.05167 h 0.04355 q 0.337503,0 3.440359,-3.48391 l 0.0871,-0.0436 h 0.04355 q 0.0871,0.0109 0.152421,0.19597 -2.471397,4.344 -4.028268,4.50731 h -0.0871 q -0.381053,0 -0.958075,-0.91453 -1.415338,0.70767 -2.351638,0.95807 h -0.174195 q -1.012511,0 -1.654857,-1.35001 -0.130646,-0.46815 -0.130646,-0.69678 v -0.30484 q 0,-2.58027 2.917773,-4.83393 0.479037,-0.21774 0.870977,-0.21774 z m -2.133894,6.18394 v 0.17419 l 0.304842,0.0436 q 0.740331,0 1.698405,-1.17582 0.958075,-1.1867 0.958075,-2.00325 0.174195,-0.72944 0.174195,-1.48066 0,-0.60968 -0.391939,-0.60968 -0.457263,0 -2.090345,2.78713 -0.653233,1.2738 -0.653233,2.26454 z"
             style="font-style:normal;font-variant:normal;font-weight:normal;font-stretch:normal;font-size:22.29701233px;line-height:1.25;font-family:Cellest;-inkscape-font-specification:Cellest;letter-spacing:0px;word-spacing:0px;fill:#ba348a;fill-opacity:1;stroke:none;stroke-width:0.55742526;stroke-opacity:1"
             id="path930"
             inkscape:connector-curvature="0" />
        </g>
        <g
           transform="matrix(0.16816491,0,0,0.16816491,34.431912,112.52245)"
           id="g1058"
           style="fill:none;fill-opacity:1;stroke:#83305b;stroke-opacity:1">
          <path
             inkscape:connector-curvature="0"
             id="path1011"
             d="m 402.75685,517.48491 10.83065,25.8804 13.83917,-30.69536"
             style="fill:none;fill-opacity:1;stroke:#83305b;stroke-width:2;stroke-linecap:round;stroke-linejoin:round;stroke-miterlimit:4;stroke-dasharray:none;stroke-dashoffset:3.00300002;stroke-opacity:1" />
          <path
             sodipodi:nodetypes="ccc"
             inkscape:connector-curvature="0"
             id="path1013"
             d="m 400.95174,518.08678 -19.05039,26.49283 4.00782,-24.68723"
             style="fill:none;fill-opacity:1;stroke:#83305b;stroke-width:2;stroke-linecap:round;stroke-linejoin:round;stroke-miterlimit:4;stroke-dasharray:none;stroke-dashoffset:3.00300002;stroke-opacity:1" />
          <path
             sodipodi:nodetypes="ccc"
             inkscape:connector-curvature="0"
             id="path1015"
             d="m 428.02837,513.87369 24.01532,22.26918 -4.79251,-25.07439"
             style="fill:none;fill-opacity:1;stroke:#83305b;stroke-width:2;stroke-linecap:round;stroke-linejoin:round;stroke-miterlimit:4;stroke-dasharray:none;stroke-dashoffset:3.00300002;stroke-opacity:1" />
          <path
             style="fill:none;fill-opacity:1;stroke:#83305b;stroke-width:1.99999988;stroke-linecap:round;stroke-linejoin:round;stroke-miterlimit:4;stroke-dasharray:none;stroke-dashoffset:3.00300002;stroke-opacity:1"
             d="m 363.80222,545.71705 c -1.28956,-2.6852 59.41379,52.17125 59.41379,52.17125 l -25.16966,-52.95435 z"
             id="path1017"
             inkscape:connector-curvature="0"
             sodipodi:nodetypes="cccc" />
          <path
             style="fill:none;fill-opacity:1;stroke:#83305b;stroke-width:1.99999988;stroke-linecap:round;stroke-linejoin:round;stroke-miterlimit:4;stroke-dasharray:none;stroke-dashoffset:3.00300002;stroke-opacity:1"
             d="m 423.53673,597.52435 10.3274,-56.45904 -37.803,4.12033 z"
             id="path1019"
             inkscape:connector-curvature="0"
             sodipodi:nodetypes="cccc" />
          <path
             style="fill:none;fill-opacity:1;stroke:#83305b;stroke-width:1.99999988;stroke-linecap:round;stroke-linejoin:round;stroke-miterlimit:4;stroke-dasharray:none;stroke-dashoffset:3.00300002;stroke-opacity:1"
             d="m 363.46354,545.28321 22.71861,-26.98149 18.01049,-3.34779 -7.84257,29.85879 z"
             id="path1021"
             inkscape:connector-curvature="0"
             sodipodi:nodetypes="ccccc" />
          <path
             style="fill:none;fill-opacity:1;stroke:#83305b;stroke-width:1.99999988;stroke-linecap:round;stroke-linejoin:round;stroke-miterlimit:4;stroke-dasharray:none;stroke-dashoffset:3.00300002;stroke-opacity:1"
             d="m 427.1891,511.23517 19.54556,-0.61275 21.19978,20.74282 -34.44311,9.41108 z"
             id="path1023"
             inkscape:connector-curvature="0"
             sodipodi:nodetypes="ccccc" />
          <path
             style="fill:none;fill-opacity:1;stroke:#83305b;stroke-width:1.99999988;stroke-linecap:round;stroke-linejoin:round;stroke-miterlimit:4;stroke-dasharray:none;stroke-dashoffset:3.00300002;stroke-opacity:1"
             d="m 403.63385,515.09607 23.42675,-3.84462 6.80353,29.81386 -37.47212,4.07838 z"
             id="path1025"
             inkscape:connector-curvature="0"
             sodipodi:nodetypes="ccccc" />
          <path
             style="fill:none;fill-opacity:1;stroke:#83305b;stroke-width:1.99999988;stroke-linecap:round;stroke-linejoin:round;stroke-miterlimit:4;stroke-dasharray:none;stroke-dashoffset:3.00300002;stroke-opacity:1"
             d="m 423.53673,597.52436 44.72858,-66.20108 -34.40118,9.74203 z"
             id="path1027"
             inkscape:connector-curvature="0"
             sodipodi:nodetypes="cccc" />
          <path
             style="fill:none;fill-opacity:1;stroke:#83305b;stroke-width:2;stroke-linecap:round;stroke-linejoin:round;stroke-miterlimit:4;stroke-dasharray:none;stroke-dashoffset:3.00300002;stroke-opacity:1"
             d="m 407.90258,470.53663 4.35219,31.7216"
             id="path1029"
             inkscape:connector-curvature="0"
             sodipodi:nodetypes="cc" />
          <path
             style="fill:none;fill-opacity:1;stroke:#83305b;stroke-width:2;stroke-linecap:round;stroke-linejoin:round;stroke-miterlimit:4;stroke-dasharray:none;stroke-dashoffset:3.00300002;stroke-opacity:1"
             d="M 441.68162,499.66315 452.54253,477.8414"
             id="path1031"
             inkscape:connector-curvature="0" />
          <path
             style="fill:none;fill-opacity:1;stroke:#83305b;stroke-width:2;stroke-linecap:round;stroke-linejoin:round;stroke-miterlimit:4;stroke-dasharray:none;stroke-dashoffset:3.00300002;stroke-opacity:1"
             d="m 468.10525,521.8439 17.2864,-13.74473"
             id="path1033"
             inkscape:connector-curvature="0"
             sodipodi:nodetypes="cc" />
          <path
             style="fill:none;fill-opacity:1;stroke:#83305b;stroke-opacity:1"
             d="m 458.8143,559.72639 20.5894,8.60993"
             id="path1035"
             inkscape:connector-curvature="0"
             sodipodi:nodetypes="cc" />
          <path
             style="fill:none;fill-opacity:1;stroke:#83305b;stroke-width:2;stroke-linecap:round;stroke-linejoin:round;stroke-miterlimit:4;stroke-dasharray:none;stroke-dashoffset:3.00300002;stroke-opacity:1"
             d="m 332.55705,524.50161 22.55939,12.5708"
             id="path1037"
             inkscape:connector-curvature="0"
             sodipodi:nodetypes="cc" />
          <path
             style="fill:none;fill-opacity:1;stroke:#83305b;stroke-width:2;stroke-linecap:round;stroke-linejoin:round;stroke-miterlimit:4;stroke-dasharray:none;stroke-dashoffset:3.00300002;stroke-opacity:1"
             d="m 367.57235,490.9065 11.36162,19.06133"
             id="path1039"
             inkscape:connector-curvature="0"
             sodipodi:nodetypes="cc" />
          <path
             sodipodi:nodetypes="ccc"
             style="fill:none;fill-opacity:1;stroke:#83305b;stroke-width:1;stroke-linecap:round;stroke-linejoin:round;stroke-miterlimit:4;stroke-dasharray:none;stroke-dashoffset:3.00300002;stroke-opacity:1"
             d="m 403.88148,514.9538 9.70602,28.41151 13.83917,-30.69536"
             id="path1041"
             inkscape:connector-curvature="0" />
          <path
             style="fill:none;fill-opacity:1;stroke:#83305b;stroke-width:1;stroke-linecap:round;stroke-linejoin:round;stroke-miterlimit:4;stroke-dasharray:none;stroke-dashoffset:3.00300002;stroke-opacity:1"
             d="m 402.91984,515.8369 -24.59703,28.74271 7.58636,-24.68723"
             id="path1043"
             inkscape:connector-curvature="0"
             sodipodi:nodetypes="ccc" />
          <path
             style="fill:none;fill-opacity:1;stroke:#83305b;stroke-width:1;stroke-linecap:round;stroke-linejoin:round;stroke-miterlimit:4;stroke-dasharray:none;stroke-dashoffset:3.00300002;stroke-opacity:1"
             d="m 427.46605,511.06134 24.57764,25.08153 -4.79251,-25.07439"
             id="path1045"
             inkscape:connector-curvature="0"
             sodipodi:nodetypes="ccc" />
          <path
             sodipodi:nodetypes="cc"
             inkscape:connector-curvature="0"
             id="path1047"
             d="M 451.82994,536.04186 424.57913,596.0985"
             style="fill:none;fill-opacity:1;stroke:#83305b;stroke-width:1;stroke-linecap:round;stroke-linejoin:round;stroke-miterlimit:4;stroke-dasharray:none;stroke-dashoffset:3.00300002;stroke-opacity:1" />
          <path
             sodipodi:nodetypes="ccc"
             inkscape:connector-curvature="0"
             id="path1050"
             d="m 413.89175,543.03618 9.89215,53.06232 -1.91986,-1.30968"
             style="fill:none;fill-opacity:1;stroke:#83305b;stroke-width:1;stroke-linecap:round;stroke-linejoin:round;stroke-miterlimit:4;stroke-dasharray:none;stroke-dashoffset:3.00300002;stroke-opacity:1" />
          <path
             sodipodi:nodetypes="cc"
             inkscape:connector-curvature="0"
             id="path1052"
             d="M 378.85332,545.18955 422.3099,596.195"
             style="fill:none;fill-opacity:1;stroke:#83305b;stroke-width:1;stroke-linecap:round;stroke-linejoin:round;stroke-miterlimit:4;stroke-dasharray:none;stroke-dashoffset:3.00300002;stroke-opacity:1" />
          <path
             inkscape:connector-curvature="0"
             id="path1054"
             d="m 372.46108,571.15465 -13.21437,14.34297"
             style="fill:none;fill-opacity:1;stroke:#83305b;stroke-width:2;stroke-linecap:round;stroke-miterlimit:4;stroke-dasharray:none;stroke-opacity:1" />
          <path
             inkscape:connector-curvature="0"
             id="path1056"
             d="m 456.38839,565.87131 11.13324,9.94315"
             style="fill:none;fill-opacity:1;stroke:#83305b;stroke-width:2;stroke-linecap:round;stroke-linejoin:round;stroke-miterlimit:4;stroke-dasharray:none;stroke-dashoffset:3.00300002;stroke-opacity:1" />
        </g>
        <path
           style="fill:none;stroke:#168489;stroke-width:0.56999999;stroke-linecap:round;stroke-linejoin:round;stroke-miterlimit:4;stroke-dasharray:none;stroke-opacity:1;paint-order:markers stroke fill"
           d="m 94.052674,245.39809 c 0,0 0.455911,0.60374 0.334082,0.89946 -0.194172,0.47131 -0.878653,0.66851 -1.387733,0.64246 -0.318383,-0.0163 -0.644357,-0.2238 -0.822359,-0.48828 -0.256367,-0.38092 -0.37875,-0.93678 -0.20559,-1.36203 0.315954,-0.77593 1.217781,-1.22821 2.0045,-1.51622 0.741152,-0.27133 1.598652,-0.32015 2.364287,-0.1285 0.641314,0.16054 1.238443,0.55089 1.696119,1.02795 0.467146,0.48692 0.909562,1.10177 0.976553,1.77322 0.0624,0.62544 -0.131818,1.34381 -0.565372,1.79891 -0.358924,0.37676 -0.971798,0.7061 -1.464829,0.53967 -0.529122,-0.1786 -0.841889,-0.85796 -0.899457,-1.41343 -0.07265,-0.70108 0.288016,-1.44242 0.745266,-1.9788 0.492842,-0.57814 1.245416,-0.93254 1.978801,-1.13075 0.942765,-0.25479 1.982218,-0.26251 2.929648,-0.0257 0.95576,0.2389 1.87105,0.74591 2.59559,1.41343 0.70069,0.64556 1.28544,1.47999 1.56762,2.38998 0.24361,0.78565 0.37819,1.71226 0.0514,2.46709 -0.22894,0.5288 -0.71507,1.07098 -1.28493,1.15645 -0.66327,0.0995 -1.33457,-0.39015 -1.82462,-0.84807 -0.57145,-0.53398 -0.98083,-1.28828 -1.13074,-2.05589 -0.14052,-0.71956 -0.0711,-1.52873 0.25699,-2.1844 0.42836,-0.85617 1.24906,-1.50615 2.08159,-1.9788 0.71937,-0.4084 1.56286,-0.65675 2.39,-0.66818 0.81227,-0.0112 1.65431,0.19628 2.36428,0.59108 0.68828,0.38274 1.38915,0.91947 1.69611,1.64472 0.2571,0.60744 0.28485,1.38387 0,1.9788 -0.19469,0.40664 -0.60437,0.81041 -1.05365,0.84807 -0.48918,0.041 -1.06393,-0.28124 -1.28493,-0.71957 -0.24491,-0.48576 -0.023,-1.12536 0.20559,-1.61903 0.39992,-0.86384 1.12801,-1.59043 1.9274,-2.10729 0.59828,-0.38682 1.32178,-0.59269 2.0302,-0.66816 0.56535,-0.0602 1.1604,-0.0104 1.69612,0.17988 0.41418,0.14719 0.85415,0.35865 1.10505,0.71957 0.20046,0.28839 0.33854,0.69351 0.23129,1.02795 -0.0982,0.30619 -0.42573,0.51186 -0.71957,0.64247 -0.29131,0.12948 -0.65192,0.2136 -0.95085,0.1028 -0.35232,-0.1306 -0.77096,-0.82236 -0.77096,-0.82236"
           id="path1016"
           inkscape:connector-curvature="0"
           sodipodi:nodetypes="cssssssssssssssssssssssssssssssssssssc" />
      </g>
    </g>
  </g>
</svg>
